#N canvas 320 173 544 563 10;
#X obj 12 15 noise~;
#X obj 12 36 hip~ 5000;
#X obj 12 57 hip~ 5000;
#X obj 12 78 lop~ 8000;
#X obj 12 99 lop~ 8000;
#X obj 47 171 *~;
#X obj 19 121 bp~ 7500 40;
#X obj 12 144 bp~ 5500 40;
#X obj 63 286 sig~ 1;
#X obj 63 312 /~;
#X obj 112 286 +~ 1;
#X obj 112 264 *~;
#X obj 47 333 *~;
#X obj 94 144 osc~ 500;
#X obj 113 239 *~ 67;
#X floatatom 206 327 6 0 0 0 - - -;
#X obj 50 459 dac~;
#X obj 113 218 noise~;
#X obj 254 300 hsl 128 15 10 50000 0 0 empty empty empty -2 -8 0 10
-262144 -1 -1 0 1;
#X obj 261 225 moses 0;
#X obj 48 380 *~ 1;
#X obj 181 467 *~ 0;
#X obj 228 463 hsl 128 15 0 1 0 1 empty empty empty -2 -8 0 10 -262144
-1 -1 8900 1;
#X obj 146 468 *~ 0;
#X obj 117 375 hsl 128 15 0 1 0 1 empty empty empty -2 -8 0 10 -262144
-1 -1 3200 1;
#X obj 126 419 rev3~ 100 85 3000 0;
#X obj 47 356 hip~ 1000;
#X text 260 374 Dry;
#X text 363 464 Wet;
#X obj 258 179 r vibrato_speed;
#X obj 268 266 scale 0 -1 50000 10 1;
#X obj 455 264 scale 0 1 50000 10 1;
#X connect 0 0 1 0;
#X connect 1 0 2 0;
#X connect 2 0 3 0;
#X connect 3 0 4 0;
#X connect 4 0 6 0;
#X connect 4 0 7 0;
#X connect 5 0 12 0;
#X connect 6 0 5 0;
#X connect 7 0 5 0;
#X connect 8 0 9 0;
#X connect 9 0 12 1;
#X connect 10 0 9 1;
#X connect 11 0 10 0;
#X connect 12 0 26 0;
#X connect 13 0 5 1;
#X connect 14 0 11 0;
#X connect 14 0 11 1;
#X connect 15 0 14 1;
#X connect 17 0 14 0;
#X connect 18 0 15 0;
#X connect 19 0 30 0;
#X connect 19 1 31 0;
#X connect 20 0 16 0;
#X connect 20 0 16 1;
#X connect 21 0 16 1;
#X connect 22 0 21 1;
#X connect 22 0 23 1;
#X connect 23 0 16 0;
#X connect 24 0 20 1;
#X connect 25 0 23 0;
#X connect 25 1 21 0;
#X connect 26 0 20 0;
#X connect 26 0 25 0;
#X connect 29 0 19 0;
#X connect 30 0 18 0;
#X connect 31 0 18 0;
